Coordinates
version=1
nRows=19
nColumns=24
inDegrees=yes

Units are S.I. units (second, meters, Newtons, ...)
Angles are in degrees.

endheader
time	pelvis_tilt	pelvis_list	pelvis_rotation	pelvis_tx	pelvis_ty	pelvis_tz	hip_flexion_r	hip_adduction_r	hip_rotation_r	knee_angle_r	ankle_angle_r	subtalar_angle_r	mtp_angle_r	hip_flexion_l	hip_adduction_l	hip_rotation_l	knee_angle_l	ankle_angle_l	subtalar_angle_l	mtp_angle_l	lumbar_extension	lumbar_bending	lumbar_rotation
      1.30750000	     -0.73213865	     -2.45437014	     -2.76412497	      0.04484837	      0.96821239	      0.36697725	    -23.57757841	      3.18903792	     -1.39161807	     -1.85408094	     12.53913776	     -3.12213669	      4.80312763	     24.28156902	     -2.80458639	      0.08712233	      4.93722446	     -1.29378846	     -4.39026578	      4.86360317	    -14.45453397	      8.07261704	      7.10754978
      1.31166667	     -0.78263803	     -2.30374461	     -2.78076285	      0.05088927	      0.96764871	      0.36652059	    -23.68194652	      2.96921562	     -1.46367292	     -2.22379168	     12.35545811	     -3.06676288	      5.10103164	     24.40588395	     -2.60083988	      0.32290546	      4.26316412	     -1.73818757	     -4.86341316	      5.00820238	    -14.34099094	      7.84463550	      7.10484849
      1.31583333	     -0.70051114	     -2.10547148	     -2.79009702	      0.05700173	      0.96730480	      0.36603600	    -23.93330571	      2.69413865	     -1.59733917	     -2.57102257	     12.03778810	     -3.04204159	      7.25556848	     24.34038790	     -2.33903152	      0.58363193	      3.67596415	     -2.33023747	     -5.48560854	      6.05191650	    -14.40041516	      7.56411729	      7.01374107
      1.32000000	     -0.88413729	     -1.97090900	     -2.82426110	      0.06308340	      0.96665894	      0.36556245	    -23.84126451	      2.48995050	     -1.61662823	     -3.05092021	     11.85295905	     -3.05016508	      7.40381569	     24.63998393	     -2.15547448	      0.74259980	      2.90583610	     -2.81769869	     -5.92576974	      6.09472672	    -14.12405223	      7.36064995	      7.08702939
      1.32416667	     -0.93800186	     -1.78402963	     -2.84262096	      0.06925501	      0.96622661	      0.36505297	    -23.90365849	      2.22895135	     -1.70942906	     -3.49133757	     11.58687937	     -3.01242111	      7.62917737	     24.73988435	     -1.90512175	      0.98433627	      2.25760521	     -3.51706319	     -6.63704202	      6.16330234	    -13.99568533	      7.09313763	      7.07352616
      1.32833333	     -0.90511560	     -1.56228488	     -2.85373605	      0.07548687	      0.96595943	      0.36452962	    -24.05835114	      1.92928092	     -1.85285158	     -3.92068527	     11.20709716	     -2.97754461	      8.87449010	     24.72049136	     -1.61245891	      1.21087658	      1.65769269	     -4.29767061	     -7.37234517	      6.57692126	    -13.98449051	      6.78966777	      6.99383259
      1.33250000	     -1.08051335	     -1.39014790	     -2.88329283	      0.08169023	      0.96546307	      0.36401843	    -23.94203825	      1.68731271	     -1.88104157	     -4.45485449	     10.92053742	     -3.03750503	      9.07762837	     25.00041940	     -1.38250108	      1.33523275	      0.88791037	     -4.95741983	     -7.94306878	      6.62469421	    -13.70594870	      6.53918264	      7.04660358
      1.33666667	     -1.13838412	     -1.16845038	     -2.90212334	      0.08796910	      0.96517460	      0.36347209	    -23.95125527	      1.38865853	     -1.98860613	     -4.97899227	     10.53856606	     -3.04849553	      9.39253466	     25.09389016	     -1.09062548	      1.53913967	      0.24058062	     -5.77748724	     -8.74227497	      6.69825770	    -13.57414458	      6.23337874	      7.02005582
      1.34083333	     -1.22001489	     -0.94188655	     -2.91459850	      0.09428512	      0.96490359	      0.36291812	    -23.93056759	      1.09059696	     -2.07593634	     -5.50723693	     10.13800195	     -3.08551465	      9.72667716	     25.23894914	     -0.79232932	      1.65534768	     -0.46736473	     -6.57496937	     -9.42298449	      6.76898340	    -13.39996015	      5.92224420	      6.99808613
      1.34500000	     -1.29978192	     -0.70826011	     -2.92961486	      0.10061629	      0.96468299	      0.36234460	    -23.88233168	      0.78129580	     -2.17959100	     -6.08904233	      9.68629450	     -3.13031810	     10.14240502	     25.37452736	     -0.48528843	      1.79621176	     -1.16649032	     -7.37373569	    -10.15788936	      6.84885912	    -13.23729505	      5.60646575	      6.97286965
      1.34916667	     -1.34150310	     -0.43790467	     -2.94008926	      0.10701116	      0.96455963	      0.36175617	    -23.86322306	      0.43123032	     -2.34476826	     -6.67509577	      9.10979164	     -3.24548569	     15.91486265	     25.47775429	     -0.13886708	      1.84656891	     -1.89588696	     -8.08416092	    -10.75796269	      7.90940618	    -13.11104911	      5.24204148	      6.91611600
      1.35333333	     -1.43735621	     -0.19900730	     -2.95189063	      0.11338701	      0.96442751	      0.36117204	    -23.76709520	      0.11987419	     -2.41311938	     -7.30153287	      8.55372864	     -3.34319154	     15.98565777	     25.65207728	      0.17373947	      1.91739493	     -2.65857571	     -8.78519951	    -11.38394575	      7.87586427	    -12.92390886	      4.92015391	      6.89934237
      1.35750000	     -1.51422904	      0.06507648	     -2.95425218	      0.11979891	      0.96436286	      0.36055750	    -23.66976245	     -0.21743532	     -2.52694583	     -7.96635713	      7.99213986	     -3.42236053	     16.12950876	     25.80248316	      0.51892711	      1.99008566	     -3.42369648	     -9.45611487	    -12.02302004	      7.84050246	    -12.75474526	      4.57144440	      6.85885845
      1.36166667	     -1.58863341	      0.33462649	     -2.95441725	      0.12622961	      0.96434890	      0.35992531	    -23.55324912	     -0.56160549	     -2.64451419	     -8.66686398	      7.38544387	     -3.50873123	     16.35550429	     25.95705923	      0.87193707	      2.05898213	     -4.21792149	    -10.04012346	    -12.62779525	      7.79693619	    -12.58841719	      4.21352259	      6.81322470
      1.36583333	     -1.66250902	      0.60918905	     -2.94810255	      0.13267391	      0.96438111	      0.35927243	    -23.41575205	     -0.91012090	     -2.76441489	     -9.40236794	      6.73724387	     -3.60995365	     16.69073184	     26.11816252	      1.23469643	      2.12666589	     -5.03896991	    -10.55030449	    -13.21978640	      7.73638889	    -12.42196434	      3.85511799	      6.76424478
      1.37000000	     -1.68045175	      0.90854288	     -2.93781965	      0.13917501	      0.96452973	      0.35864327	    -23.33404243	     -1.28288086	     -2.90152726	    -10.13664957	      6.01640735	     -3.72564004	     16.80268489	     26.24111891	      1.61798937	      2.06670706	     -5.92672341	    -10.83013847	    -13.51844126	      7.71019295	    -12.29553524	      3.43982421	      6.70187112
      1.37416667	     -1.75903129	      1.20667488	     -2.91938214	      0.14565858	      0.96463989	      0.35796024	    -23.15207667	     -1.65300882	     -3.02203474	    -10.93447521	      5.27694157	     -3.84819116	     16.99331228	     26.42110567	      2.01059880	      2.12047697	     -6.80719590	    -11.13064532	    -13.96419299	      7.66637038	    -12.13570004	      3.05223480	      6.64802661
      1.37833333	     -1.79728508	      1.48504857	     -2.90554899	      0.15209478	      0.96483844	      0.35722523	    -22.95453235	     -2.02107859	     -3.20161269	    -11.82899633	      4.48822676	     -3.99203620	     23.46092026	     26.54794916	      2.39623779	      2.25114285	     -7.67702820	    -11.40394480	    -14.57650476	      6.28804613	    -12.01105271	      2.71171718	      6.59038099
      1.38250000	     -1.83678883	      1.75961217	     -2.86740706	      0.15856926	      0.96507240	      0.35650133	    -22.76515136	     -2.36574660	     -3.33517185	    -12.70494870	      3.64258817	     -4.14937676	     23.50792047	     26.70029150	      2.78026723	      2.32214294	     -8.61618415	    -11.48487235	    -14.93028619	      6.27944181	    -11.88150831	      2.35642860	      6.52895055
